/* XPM */
static char *_25dd9d0e1914511f02ea30c1e847a7f8ESV7gOVOYfjS3FS[] = {
/* columns rows colors chars-per-pixel */
"32 32 4 1 ",
"  c None",
". c black",
"X c #00F7FF",
"o c white",
/* pixels */
"                                ",
"                                ",
"                                ",
"                                ",
"                                ",
"    ........................    ",
"   .XXXXXXXXXXXXXXXXXXXXXXXX.   ",
"  .XXXXXXXXXXXXXXXXXXXXXXXXXX.  ",
" .XXXXXXXXXXXXXXXXXXXXXXXXooXX. ",
".XXXXXoXXXXXXXXXXXXXoXXXXXXoXXX.",
".XXXXXXXXXXXXXoXXXXXXXXXoXXXXXX.",
".XXXXXXXXXXXXoooXXXXXXXXXXXXXXX.",
".XXXXoXoXXXXXXoXXXXXXXXXXXXXXXX.",
".XXXXXoXXXXXXXXXXXXXXXXXXXXXXXX.",
" .XXXXXoXXXXXXXXXXXXXXXXXoXXXX. ",
"  .XXXXXXXXXXXXXXXXoXXXXXXXXX.  ",
"   .XXXXXXXXXXXXXXXXXXXXXXXX.   ",
"    .XXXXXXXXXXXXXXXXXXXXXX.    ",
"     .XXXXXXXXXXXXXXXXXXXX.     ",
"      .XXXXoXXXXoXXXoXXXX.      ",
"       .XXXXXXXXXXXXooXX.       ",
"        .XXXXXXXXXXXXXX.        ",
"         .XXXXXXXXXXXX.         ",
"          .XXXXXXXXXX.          ",
"           .XXXXXXXX.           ",
"            .XXXoXX.            ",
"             .XoXX.             ",
"              .XX.              ",
"               ..               ",
"                                ",
"                                ",
"                                "
};
