/* XPM */
static char *_b7c9f9a4126436fe074d44e95a961ca7LnSYmVivvkDi3fj[] = {
/* columns rows colors chars-per-pixel */
"32 32 10 1 ",
"  c black",
". c #75460B",
"X c #464646",
"o c #ED1C24",
"O c #9C5A3C",
"+ c #22B14C",
"@ c #00FF48",
"# c #80FF00",
"$ c #FFF200",
"% c #B4B4B4",
/* pixels */
"++++++++.++++++.++++++++++++++++",
"+@@++++++++++++++++.++++++++#+.+",
"++####++++++.##+++++@@@+++++#+++",
"++++++++++++++#%%+.++++++.++#+++",
"++.+++++.+++++%oo%+++.+++++++#+.",
"+++++.+++++++%oooo%++++++@+++#++",
"+++++++++++++%oooo%++++++@#++#++",
"+++#+++#@+++%oooooo%+++++@#++#++",
"+++#+++#@+.%oooooooo%+.++@#+++++",
"+.+oo++#@+%oooooooooo%++++#oo+++",
"++oooo+##+%%XXXXXXXX%%++++oooo++",
"+oooooo++++%XXXXXXXX%++++oooooo+",
"oooooooo+++%XX    XX%.++oooooooo",
"+%%%%%%++++%XX    XX%+++@%%%%%%+",
"+%XXX %++#+%XX    XX%++@@% XXX%+",
"+%XXX %++#+%XX    XX%+@@#% XXX%+",
"+% XXX%++#%XXXXXXXXXX%++#%XX X%+",
"+% XXX%+%%XXXXXXXXXXXX%%+%XX X%+",
"+%XXXX%%XXXXXXXXXXXXXXXX%%XXXX%+",
"+%XX X%XXXXXXXXXXXXXXXXXX%X XX%+",
"+%XX X%XXXXXXXXXXXXXXXXXX%X XX%+",
"+%XXXX%XXXXXXXXXXXXXXXXXX%XXXX%+",
"+%XXXX%XX%%XX%%XX%%XX%%XX%XXXX%+",
"+%XXXX%%%%%%%%%%%%%%%%%%%%XXXX%+",
"+%XXXX%XXXXXXX%%%%XXXXXXX%XXXX%+",
"+%XXXX%XXXXXX%O..O%XXXXXX%XXXX%+",
"+%XXXX%XXXXX%.O..O.%XXXXX%XXXX%+",
"+%XXXX%XXXXX%.O..O.%XXXXX%XXXX%+",
"+%XXXX%XXXX%O.O..O.O%XXXX%XXXX%+",
"+%XXXX%XXXX%O.O..O.O%XXXX%XXXX%+",
"+%XXXX%XXXX%O.O$$O.O%XXXX%XXXX%+",
"+%%%%%%%%%%%O.O..O.O%%%%%%%%%%%+"
};
