/* XPM */
static char *_ae2280e0e2c405acae1f987fcd572aedgkug2H1rITKz1O3[] = {
/* columns rows colors chars-per-pixel */
"32 32 4 1 ",
"  c #75460B",
". c #22B14C",
"X c #00FF48",
"o c #80FF00",
/* pixels */
"........ ...... ................",
".XX................ ........o. .",
"..oooo...... oo.....XXX.....o...",
"..............o... ...... ..o...",
".. ..... .....o...... .......o. ",
"..... ........o..........X...o..",
".............oo... ......Xo..o..",
"...o...oX....o...........Xo..o..",
"...o...oX. ...o....... ..Xo.....",
". .o...oX.....oo..X.......o.....",
"...o...oo......o..X.............",
"...o............o...............",
". .... ...... ..oo... ...X... ..",
"........................Xoo.....",
".........o....X........XXo......",
"...... ..o....X.......XXoo... ..",
".. ......oooo...........o.......",
"...XX............ ..............",
"....XX.............XX...........",
".....XX... .................. ..",
".. ..... ....X. ...oo....X......",
".............X......ooo..X......",
"..................X......Xo.....",
"..o...............X.......o.....",
"..o..XXX...... ...X... ...o.....",
"..o. .....oo......X.............",
"..o.....oo..................XX..",
"...o....o..... ......... .......",
"...oo.oo............. ...... ...",
"........ ... ... ...............",
"... ........................ ...",
"................................"
};
