/* XPM */
static char *d130e84576d042bdafadf9025379ec87Rv4DlP3YdHvZMMry[] = {
/* columns rows colors chars-per-pixel */
"32 32 7 1 ",
"  c black",
". c #75460B",
"X c #22B14C",
"o c #00FF48",
"O c #80FF00",
"+ c #00F7FF",
"@ c white",
/* pixels */
"XXXXXXXX.XXXXXX.XXXXXXXXXXXXXXXX",
"XooXXXXXXXXXXXXXXXX.XXXXXXXXOX.X",
"XXOOOO XXXXX.OOXXXXXoooXXXXXOXXX",
"XXXXXXXXXXXXXXOXXX.XXXXXX.XXOXXX",
"XX.XXXXX.XXXXXOXXXXXX.XXXXXXXOX.",
"XXXX                        XOXX",
"XXX ++++++++++++++++++++++++ OXX",
"XX ++++++++++++++++++++++++++ XX",
"X ++++++++++++++++++++++++@@++ X",
" +++++@+++++++++++++@++++++@+++ ",
" +++++++++++++@+++++++++@++++++ ",
" ++++++++++++@@@+++++++++++++++ ",
" ++++@+@++++++@++++++++++++++++ ",
" +++++@++++++++++++++++++++++++ ",
"X +++++@+++++++++++++++++@++++ X",
"XX ++++++++++++++++@+++++++++ XX",
"XX. ++++++++++++++++++++++++ XXX",
"XXXo ++++++++++++++++++++++ XXXX",
"XXXXo ++++++++++++++++++++ XXXXX",
"XXXXXo ++++@++++@+++@++++ XXX.XX",
"XX.XXXX ++++++++++++@@++ oXXXXXX",
"XXXXXXXX ++++++++++++++ XoXXXXXX",
"XXXXXXXXX ++++++++++++ XXoOXXXXX",
"XXOXXXXXXX ++++++++++ XXXXOXXXXX",
"XXOXXoooXXX ++++++++ X.XXXOXXXXX",
"XXOX.XXXXXOO +++@++ XXXXXXXXXXXX",
"XXOXXXXXOOXXX +@++ XXXXXXXXXooXX",
"XXXOXXXXOXXXXX ++ XXXXXX.XXXXXXX",
"XXXOOXOOXXXXXXX  XXXX.XXXXXX.XXX",
"XXXXXXXX.XXX.XXX.XXXXXXXXXXXXXXX",
"XXX.XXXXXXXXXXXXXXXXXXXXXXXX.XXX",
"XXXXXXXXXXXXXXXXXXXXXXXXXXXXXXXX"
};
