/* XPM */
static char *_0c73cae1c7c41b4cf24a0d2d5be90372wioQyk3V2ouS36T[] = {
/* columns rows colors chars-per-pixel */
"32 32 3 1 ",
"  c black",
". c gray47",
"X c red",
/* pixels */
"............................... ",
".XX.XX.XX.XX.XX.XX.XX.XX.XX.XX. ",
"............................... ",
"X.XX.XX.XX.XX.XX.XX.XX.XX.XX.XX ",
"............................... ",
"XX.XX.XX.XX.XX.XX.XX.XX.XX.XX.X ",
"............................... ",
".XX.XX.XX.XX.XX.XX.XX.XX.XX.XX. ",
"............................... ",
"X.XX.XX.XX.XX.XX.XX.XX.XX.XX.XX ",
"............................... ",
"XX.XX.XX.XX.XX.XX.XX.XX.XX.XX.X ",
"............................... ",
".XX.XX.XX.XX.XX.XX.XX.XX.XX.XX. ",
"............................... ",
"X.XX.XX.XX.XX.XX.XX.XX.XX.XX.XX ",
"............................... ",
"XX.XX.XX.XX.XX.XX.XX.XX.XX.XX.X ",
"............................... ",
".XX.XX.XX.XX.XX.XX.XX.XX.XX.XX. ",
"............................... ",
"X.XX.XX.XX.XX.XX.XX.XX.XX.XX.XX ",
"............................... ",
"XX.XX.XX.XX.XX.XX.XX.XX.XX.XX.X ",
"............................... ",
".XX.XX.XX.XX.XX.XX.XX.XX.XX.XX. ",
"............................... ",
"X.XX.XX.XX.XX.XX.XX.XX.XX.XX.XX ",
"............................... ",
"XX.XX.XX.XX.XX.XX.XX.XX.XX.XX.X ",
"............................... ",
"                                "
};
