/* XPM */
static char *_c6ada888e4c4862f280e9d8da5ce803fsGry1LHrYYknijX[] = {
/* columns rows colors chars-per-pixel */
"32 32 8 1 ",
"  c black",
". c #296600",
"X c #75460B",
"o c #9C5A3C",
"O c #22B14C",
"+ c #00FF48",
"@ c #80FF00",
"# c white",
/* pixels */
"OOOOOOOOXOOOOOOXOOOOOOOOOOOOOOOO",
"O++OOOOOOOOOOOOOOOOXOOOOOOOO@OXO",
"OO@@@@OOOOOOX@@OOOOO+++OOOOO@OOO",
"OOOOOOOOOOOOOO@OOOXOOOOOOXOO@OOO",
"OOXOOOOOXOOOOO@OOOO  XOOOOOOO@OX",
"OOOOOXOOOOOOOO@OO  oo   O+OOO@OO",
"OOOOOOOOOOOOO@@O oooooo   @OO@OO",
"OOO   O@+   O@O ooooooooo   O@OO",
"OO ### @ ### O@ ooooooooooo OOOO",
"O ## ## ## ##  oooooooooooo  OOO",
"O #  ## #  ## ooooooXXoooooo OOO",
"O ##### ##### oooooXXXXooooo  OO",
"OO ###   ###  ooooXXXXXXooooo OO",
"OOO           oooXXXooXXXoooo  O",
"OOO ..   ...  ooXXXooooXXXoooo O",
"OOO ..   ... ooXXXooooooXXXooo  ",
"OOX ..   ... oXXXooooooooXXoooo ",
"OOO ..   ... oXXoooooooooXXoooo ",
"OOO ..   ..  oXXooooooooXXXooo  ",
"OOO ..  ... ooXXoooooooXXXoooo O",
"OOX ..  ... ooXXoooooooXXoooo  O",
"OOO .. .... ooXXXoooooooooooo OO",
"OOO .. .... oooXXXooooooooooo OO",
"OO@ .. .... ooooXXXoooooooooo OO",
"OO@ .. ..    ooooXXXoooooooo  OO",
"OO@ .. .. ooooooooXXXoooooo  OOO",
"OO@    ..   oooooooXXoooooo ++OO",
"OO ......... ooooooXXooooo  OOOO",
"OO ..........                OOO",
"O ........................... OO",
"O                             OO",
"OOOOOOOOOOOOOOOOOOOOOOOOOOOOOOOO"
};
