/* XPM */
static char *_1299fda61674b05c18be489a3251b07LOhli6m9r19jQ4hP[] = {
/* columns rows colors chars-per-pixel */
"32 32 6 1 ",
"  c None",
". c black",
"X c #296600",
"o c #75460B",
"O c #9C5A3C",
"+ c white",
/* pixels */
"                                ",
"                                ",
"                                ",
"                                ",
"                   ..           ",
"                 ..OO...        ",
"                .OOOOOO...      ",
"   ...   ...   .OOOOOOOOO...    ",
"  .+++. .+++.  .OOOOOOOOOOO.    ",
" .++.++.++.++..OOOOOOOOOOOO..   ",
" .+..++.+.. +.OOOOOOooOOOOOO.   ",
" .+++++.++++ .OOOOOooooOOOOO..  ",
"  .+++...++ ..OOOOooooooOOOOO.  ",
"   ...........OOOoooOOoooOOOO.. ",
"   .XX...XXX..OOoooOOOOoooOOOO. ",
"   .XX...XXX.OOoooOOOOOOoooOOO..",
"   .XX...XXX.OoooOOOOOOOOooOOOO.",
"   .XX...XXX.OooOOOOOOOOOooOOOO.",
"   .XX...XX..OooOOOOOOOOoooOOO..",
"   .XX..XXX.OOooOOOOOOOoooOOOO. ",
"   .XX..XXX.OOooOOOOOOOooOOOO.. ",
"   .XX.XXXX.OOoooOOOOOOOOOOOO.  ",
"   .XX.XXXX.OOOoooOOOOOOOOOOO.  ",
"   .XX.XXXX.OOOOoooOOOOOOOOOO.  ",
"   .XX.XX....OOOOoooOOOOOOOO..  ",
"   .XX.XX.OOOOOOOOoooOOOOOO..   ",
"   ....XX...OOOOOOOooOOOOOO.    ",
"  .XXXXXXXXX.OOOOOOooOOOOO..    ",
"  .XXXXXXXXXX................   ",
" .XXXXXXXXXXXXXXXXXXXXXXXXXXX.  ",
" .............................  ",
"                                "
};
